<svg xmlns="http://www.w3.org/2000/svg" width="11.117" height="11.117" viewBox="0 0 11.117 11.117">
  <path id="skype-svgrepo-com" d="M2.011,3.779A1.769,1.769,0,0,1,5.025,2.523l.206.2.28-.075a4.046,4.046,0,0,1,4.953,4.953l-.075.28.2.206a1.769,1.769,0,0,1-2.5,2.5l-.206-.2-.28.075A4.046,4.046,0,0,1,2.653,5.511l.075-.28-.2-.206A1.761,1.761,0,0,1,2.011,3.779ZM3.779,1A2.779,2.779,0,0,0,1.612,5.52,5.057,5.057,0,0,0,7.6,11.5,2.779,2.779,0,0,0,11.5,7.6,5.057,5.057,0,0,0,5.52,1.612,2.769,2.769,0,0,0,3.779,1ZM5.872,5.209a.738.738,0,0,1,.652-.293,1.7,1.7,0,0,1,1.1.357.505.505,0,0,0,.613-.8,2.712,2.712,0,0,0-1.714-.564,1.737,1.737,0,0,0-1.571.879,1.251,1.251,0,0,0,.039,1.246,1.7,1.7,0,0,0,1.035.736l.785.211c.3.081.762.362.6.741a1.047,1.047,0,0,1-.974.481,1.881,1.881,0,0,1-1.212-.357.505.505,0,1,0-.613.8,2.627,2.627,0,0,0,1.714.564A2.091,2.091,0,0,0,8.335,8.125a1.391,1.391,0,0,0-.117-1.335,2.6,2.6,0,0,0-1.7-.939L6.29,5.792C6.025,5.72,5.714,5.512,5.872,5.209Z" transform="translate(-1 -1)" fill="#fff" fill-rule="evenodd"/>
</svg>
