<svg xmlns="http://www.w3.org/2000/svg" width="16.006" height="16.606" viewBox="0 0 16.006 16.606">
  <g id="Inspected" transform="translate(-109.84 -73.06)">
    <path id="Path_21970" data-name="Path 21970" d="M111.33,74.413h11.922v7.442h1.49V73.06h-14.9V89.3h8.194V87.944h-6.7Z" fill="#fff"/>
    <path id="Path_21971" data-name="Path 21971" d="M256.13,219.34h8.942v1.49H256.13Zm0,2.981h7.451v1.49H256.13Zm0,2.98H260.6v1.49H256.13Z" transform="translate(-143.309 -143.3)" fill="#fff"/>
    <path id="ic_search_24px" d="M9.9,9.069H9.461L9.307,8.92a3.592,3.592,0,1,0-.386.386l.149.154V9.9l1.276,1.122.355-.355.467-.467Zm-3.311,0A2.483,2.483,0,1,1,9.069,6.586a2.694,2.694,0,0,1-.6,1.624A2.323,2.323,0,0,1,6.586,9.069Z" transform="translate(114.678 78.646)" fill="#fff"/>
  </g>
</svg>
