<svg xmlns="http://www.w3.org/2000/svg" width="11" height="10.744" viewBox="0 0 11 10.744">
  <path id="whatsapp-svgrepo-com" d="M2.279,6.872A4.347,4.347,0,1,1,4.3,10.549a.512.512,0,0,0-.42-.058l-1.473.44.555-1.3a.512.512,0,0,0-.036-.471A4.326,4.326,0,0,1,2.279,6.872ZM6.628,1.5a5.374,5.374,0,0,0-4.7,7.967l-.882,2.064a.512.512,0,0,0,.617.691l2.3-.687A5.372,5.372,0,1,0,6.628,1.5ZM7.8,7.989l-.672.474a4.778,4.778,0,0,1-1.012-.779A5.219,5.219,0,0,1,5.285,6.6l.427-.363a.512.512,0,0,0,.121-.63L5.289,4.585A.512.512,0,0,0,4.5,4.44l-.161.141A1.362,1.362,0,0,0,3.912,6.04,6.165,6.165,0,0,0,5.393,8.407,5.351,5.351,0,0,0,7.814,9.842a1.319,1.319,0,0,0,1.16-.28l.3-.247a.512.512,0,0,0-.061-.836l-.859-.512A.512.512,0,0,0,7.8,7.989Z" transform="translate(-1 -1.5)" fill="#fff" fill-rule="evenodd"/>
</svg>
