<svg xmlns="http://www.w3.org/2000/svg" width="13" height="13" viewBox="0 0 13 13">
  <g id="Group_2518" data-name="Group 2518" transform="translate(-19.125 -177)">
    <ellipse id="Ellipse_170" data-name="Ellipse 170" cx="3.578" cy="3.578" rx="3.578" ry="3.578" transform="translate(22.048 179.922)"/>
    <path id="Path_21995" data-name="Path 21995" d="M6.5,0a.352.352,0,0,0,0,.7,5.771,5.771,0,0,1,3.839,1.458L9.507,3A4.613,4.613,0,0,0,3.5,3L2.413,1.915,2.407,1.91,2.4,1.9a.352.352,0,0,0-.5,0A6.5,6.5,0,0,0,11.1,11.1,6.5,6.5,0,0,0,6.5,0ZM9.269,3.735A.35.35,0,0,0,9.8,3.7l0,0,1.04-1.04a5.771,5.771,0,0,1,1.447,3.487h-.392a.352.352,0,1,0,0,.7h.392a5.745,5.745,0,0,1-1.445,3.489L10,9.5a4.6,4.6,0,0,0,1.114-3,.352.352,0,1,0-.7,0A3.913,3.913,0,1,1,9.269,3.735ZM6.5,11.506a.352.352,0,0,0-.352.352v.426a5.772,5.772,0,0,1-3.487-1.447L3.5,10A4.609,4.609,0,0,0,9.5,10l.836.836a5.745,5.745,0,0,1-3.489,1.445v-.426A.352.352,0,0,0,6.5,11.506ZM.716,6.852H1.9A4.6,4.6,0,0,0,3,9.5l-.834.834A5.772,5.772,0,0,1,.716,6.852ZM2.161,2.659,3,3.5A4.6,4.6,0,0,0,1.9,6.148H.716A5.745,5.745,0,0,1,2.161,2.659Z" transform="translate(19.125 177)" fill="#fff"/>
    <path id="Path_21996" data-name="Path 21996" d="M173.9,179.276a1.25,1.25,0,0,0-.81-2.2h-1.018a.232.232,0,0,0-.232.232v4.048a.089.089,0,0,0,.089.089h.419a.089.089,0,0,0,.089-.089v-1.78h.658a.654.654,0,0,1,.646.652v1.128a.089.089,0,0,0,.089.089h.419a.089.089,0,0,0,.089-.089v-1.128A1.257,1.257,0,0,0,173.9,179.276Zm-.8-.3h-.659v-1.3h.659a.655.655,0,0,1,.6.905A.691.691,0,0,1,173.092,178.977Z" transform="translate(-148.634 3.804)" fill="#fff"/>
    <path id="Path_21997" data-name="Path 21997" d="M271.605,229.531l-.484-.038c-.306-.063-.306-.253-.306-.355a.3.3,0,0,1,.227-.333.408.408,0,0,1,.132-.02h.354a.392.392,0,0,1,.131.023h0a.292.292,0,0,1,.216.279.174.174,0,0,0,.171.167h.376a.166.166,0,0,0,.121-.052.184.184,0,0,0,.05-.135,1.046,1.046,0,0,0-.7-1,1.252,1.252,0,0,0-.434-.073h-.229a1.255,1.255,0,0,0-.463.083,1.058,1.058,0,0,0-.673,1.058,1.082,1.082,0,0,0,.992,1.14l.484.038c.306.063.306.253.306.355a.3.3,0,0,1-.177.313.46.46,0,0,1-.2.04h-.318a.461.461,0,0,1-.193-.039.284.284,0,0,1-.178-.264.175.175,0,0,0-.171-.167h-.376a.166.166,0,0,0-.121.052.184.184,0,0,0-.05.135,1.046,1.046,0,0,0,.7,1,1.254,1.254,0,0,0,.434.073h.229a1.254,1.254,0,0,0,.463-.083,1.058,1.058,0,0,0,.673-1.058A1.082,1.082,0,0,0,271.605,229.531Z" transform="translate(-244.448 -46.299)" fill="#fff"/>
  </g>
</svg>
