<svg xmlns="http://www.w3.org/2000/svg" width="11.95" height="11.645" viewBox="0 0 11.95 11.645">
  <g id="website-click-svgrepo-com" transform="translate(-6.66 -6.632)">
    <path id="Path_21978" data-name="Path 21978" d="M14.216,17.747A5.365,5.365,0,1,1,17.87,12.66a8.036,8.036,0,0,1-.158,1.295" transform="translate(0 -0.241)" fill="none" stroke="#fff" stroke-width="0.7"/>
    <path id="Path_21979" data-name="Path 21979" d="M33.265,51.1A10.142,10.142,0,0,1,32,52.308" transform="translate(-19.495 -34.591)" fill="none" stroke="#fff" stroke-width="0.7"/>
    <path id="Path_21980" data-name="Path 21980" d="M32,7a7.528,7.528,0,0,1,2.516,6.01" transform="translate(-19.495 -0.008)" fill="none" stroke="#fff" stroke-width="0.7"/>
    <path id="Path_21981" data-name="Path 21981" d="M22.833,7a7.357,7.357,0,0,0-2.523,5.494c0,3.5,1.571,4.532,2.516,5.231" transform="translate(-10.328 -0.008)" fill="none" stroke="#fff" stroke-width="0.7"/>
    <line id="Line_22" data-name="Line 22" x2="9.362" transform="translate(7.837 9.776)" fill="none" stroke="#fff" stroke-width="0.7"/>
    <line id="Line_23" data-name="Line 23" y2="10.728" transform="translate(12.505 6.99)" fill="none" stroke="#fff" stroke-width="0.7"/>
    <line id="Line_24" data-name="Line 24" x2="5.609" transform="translate(7.984 15.296)" fill="none" stroke="#fff" stroke-width="0.7"/>
    <line id="Line_25" data-name="Line 25" y1="0.132" x2="10.73" transform="translate(7.14 12.355)" fill="none" stroke="#fff" stroke-width="0.7"/>
    <path id="Path_21982" data-name="Path 21982" d="M41.887,41.6l.956-.958-1.726-1.726.982-.628a.082.082,0,0,0-.026-.151l-3.3-.773a.084.084,0,0,0-.1.1l.716,3.362a.084.084,0,0,0,.153.028l.617-.98Z" transform="translate(-24.727 -23.818)" fill="none" stroke="#fff" stroke-width="0.7"/>
  </g>
</svg>
