<svg xmlns="http://www.w3.org/2000/svg" width="15.57" height="16.237" viewBox="0 0 15.57 16.237">
  <g id="Pending" transform="translate(-109.84 -73.06)">
    <path id="Path_21970" data-name="Path 21970" d="M111.33,74.413h11.922v7.442h1.49V73.06h-14.9V89.3h8.194V87.944h-6.7Z" fill="#7c7c7c"/>
    <path id="Path_21971" data-name="Path 21971" d="M256.13,219.34h8.942v1.49H256.13Zm0,2.981h7.451v1.49H256.13Zm0,2.98H260.6v1.49H256.13Zm8.863-.156a3.726,3.726,0,1,0,3.726,3.726A3.726,3.726,0,0,0,264.993,225.145Zm0,5.961a2.235,2.235,0,1,1,2.235-2.235A2.238,2.238,0,0,1,264.993,231.106Z" transform="translate(-143.309 -143.3)" fill="#7c7c7c"/>
    <path id="Path_21972" data-name="Path 21972" d="M705.248,692.08H704.13v1.778l1.414,1.4.787-.794-1.083-1.073Z" transform="translate(-583.005 -608.054)" fill="#7c7c7c"/>
  </g>
</svg>
