<svg xmlns="http://www.w3.org/2000/svg" width="10.3" height="11.966" viewBox="0 0 10.3 11.966">
  <g id="place-svgrepo-com" transform="translate(-127.85 -63.85)">
    <path id="Path_21975" data-name="Path 21975" d="M259.333,69.833a2.5,2.5,0,1,0-2.5-2.5A2.5,2.5,0,0,0,259.333,69.833Zm0,.833a3.333,3.333,0,1,1,3.333-3.333A3.333,3.333,0,0,1,259.333,70.666Z" transform="translate(-126.333)" fill="#fff" stroke="#fff" stroke-width="0.3"/>
    <path id="Path_21976" data-name="Path 21976" d="M480.417,512a.417.417,0,0,1,.417.417v3.333a.417.417,0,1,1-.833,0v-3.333A.417.417,0,0,1,480.417,512Z" transform="translate(-347.417 -442.167)" fill="#fff" stroke="#fff" stroke-width="0.3"/>
    <path id="Path_21977" data-name="Path 21977" d="M131.333,649.088v.846c-1.487.238-2.5.753-2.5,1.119,0,.491,1.822,1.25,4.166,1.25s4.166-.759,4.166-1.25c0-.367-1.012-.881-2.5-1.119v-.846c1.942.286,3.333,1.058,3.333,1.965,0,1.15-2.238,2.083-5,2.083s-5-.933-5-2.083C128,650.146,129.392,649.374,131.333,649.088Z" transform="translate(0 -577.47)" fill="#fff" stroke="#fff" stroke-width="0.3"/>
  </g>
</svg>
