<svg xmlns="http://www.w3.org/2000/svg" width="10" height="10" viewBox="0 0 10 10">
  <path id="calendar-svgrepo-com" d="M0,8.13A1.779,1.779,0,0,0,.55,9.45,1.865,1.865,0,0,0,1.88,10H8.13A1.878,1.878,0,0,0,10,8.13V1.88A1.8,1.8,0,0,0,9.65.79a1.832,1.832,0,0,0-.9-.67V.94a.931.931,0,0,1-.27.67.861.861,0,0,1-.67.27.929.929,0,0,1-.66-.27A.941.941,0,0,1,6.88.94V0H3.13V.94a.914.914,0,0,1-.28.67.868.868,0,0,1-.66.27,1.016,1.016,0,0,1-.67-.27A.8.8,0,0,1,1.25.94V.12a1.915,1.915,0,0,0-.9.67A1.776,1.776,0,0,0,0,1.88V8.13Zm1.25,0v-5h7.5v5a.615.615,0,0,1-.62.62H1.88a.632.632,0,0,1-.45-.18.552.552,0,0,1-.18-.44ZM1.88.94a.31.31,0,1,0,.62,0V0H1.88ZM2.5,7.5H3.75V6.25H2.5Zm0-1.87H3.75V4.38H2.5ZM4.38,7.5H5.63V6.25H4.38Zm0-1.87H5.63V4.38H4.38ZM6.25,7.5H7.5V6.25H6.25Zm0-1.87H7.5V4.38H6.25ZM7.5.94a.311.311,0,0,0,.53.22.338.338,0,0,0,.1-.22V0H7.5Z" transform="translate(0)" fill="#fff"/>
</svg>
