<svg xmlns="http://www.w3.org/2000/svg" width="11" height="11.001" viewBox="0 0 11 11.001">
  <g id="Page-1" transform="translate(0 0.001)">
    <g id="Dribbble-Light-Preview" transform="translate(0 -0.001)">
      <g id="icons" transform="translate(0 0)">
        <path id="profile_round-_1342_" data-name="profile_round-[#1342]" d="M93.11,2008.9H85.891a.549.549,0,0,1-.529-.737,4.622,4.622,0,0,1,8.276,0,.548.548,0,0,1-.529.737m-5.855-6.6a2.246,2.246,0,1,1,2.246,2.2,2.224,2.224,0,0,1-2.246-2.2m7.722,6.4a5.244,5.244,0,0,0-3.365-3.833,3.258,3.258,0,0,0,1.219-3.08,3.375,3.375,0,0,0-6.7.512,3.264,3.264,0,0,0,1.259,2.569,5.245,5.245,0,0,0-3.366,3.833,1.1,1.1,0,0,0,1.105,1.3H93.87a1.1,1.1,0,0,0,1.105-1.3" transform="translate(-84 -1998.999)" fill-rule="evenodd"/>
      </g>
    </g>
  </g>
</svg>
