<svg xmlns="http://www.w3.org/2000/svg" width="8.468" height="11.515" viewBox="0 0 8.468 11.515">
  <g id="Group_2519" data-name="Group 2519" transform="translate(-30.436 -245.633)">
    <g id="identification-svgrepo-com" transform="translate(-40.49 242.295)">
      <g id="Group_2489" data-name="Group 2489" transform="translate(70.926 2.81)">
        <g id="Group_2488" data-name="Group 2488" transform="translate(0 0.528)">
          <path id="Path_21984" data-name="Path 21984" d="M78.549,1.583H77.66c0-1.406-.5-1.406-.5,0H71.968c0-1.406-.5-1.406-.5,0H70.58a.25.25,0,0,0-.25.25v9.962a.25.25,0,0,0,.25.25h7.969a.25.25,0,0,0,.25-.25V1.833A.25.25,0,0,0,78.549,1.583Zm-7.72,9.962V2.082H78.3v9.462Z" transform="translate(-70.33 -0.528)" fill="#fff"/>
          <path id="Path_21986" data-name="Path 21986" d="M180.062,414.38h-3.036a.25.25,0,0,0,0,.5h3.036a.25.25,0,0,0,0-.5Z" transform="translate(-174.121 -404.502)" fill="#fff"/>
        </g>
      </g>
    </g>
    <g id="Page-1" transform="translate(31.225 248.225)">
      <g id="Dribbble-Light-Preview" transform="translate(0 -0.001)">
        <g id="icons" transform="translate(0 0)">
          <path id="profile_round-_1342_" data-name="profile_round-[#1342]" d="M89.424,2004.894h-4.3a.327.327,0,0,1-.315-.439,2.752,2.752,0,0,1,4.928,0,.327.327,0,0,1-.315.439m-3.487-3.93a1.337,1.337,0,1,1,1.337,1.31,1.324,1.324,0,0,1-1.337-1.31m4.6,3.812a3.123,3.123,0,0,0-2-2.282,1.94,1.94,0,0,0,.726-1.834,2.01,2.01,0,0,0-3.988.3,1.944,1.944,0,0,0,.749,1.53,3.123,3.123,0,0,0-2,2.282.654.654,0,0,0,.658.773h5.2a.654.654,0,0,0,.658-.773" transform="translate(-84 -1998.999)" fill="#fff" fill-rule="evenodd"/>
        </g>
      </g>
    </g>
  </g>
</svg>
