<svg xmlns="http://www.w3.org/2000/svg" width="9" height="10.918" viewBox="0 0 9 10.918">
  <g id="company-folder-svgrepo-com" transform="translate(-4.512)">
    <g id="Group_2490" data-name="Group 2490" transform="translate(4.512)">
      <path id="Path_21987" data-name="Path 21987" d="M5.044,10.918h7.937a.532.532,0,0,0,.531-.532V.532A.532.532,0,0,0,12.981,0H5.044a.532.532,0,0,0-.531.532v9.855A.532.532,0,0,0,5.044,10.918ZM5.15.638h7.724V10.28H5.15Z" transform="translate(-4.512)" fill="#010002"/>
      <path id="Path_21988" data-name="Path 21988" d="M17.626,6.427H16.5a.235.235,0,0,0,.005-.03c0-.431-2.7-.431-2.7,0a.278.278,0,0,0,.005.03H12.69a.32.32,0,0,0-.3.34v7.7a.32.32,0,0,0,.3.34h3.3a.554.554,0,0,0,.356-.154l1.412-1.424a.634.634,0,0,0,.161-.409V6.766A.32.32,0,0,0,17.626,6.427Zm-1.341,7.616v-.876h.869Zm1.194-1.385H16.137a.32.32,0,0,0-.3.339v1.3h-3V6.936h4.64Z" transform="translate(-10.621 -4.914)" fill="#010002"/>
      <path id="Path_21989" data-name="Path 21989" d="M17.092,29.521h.036a1.082,1.082,0,0,0,.855-.491,2.667,2.667,0,0,1,2.823-.586c.161.07.432.226.445.475a.174.174,0,0,0,.168.18.185.185,0,0,0,.148-.206.966.966,0,0,0-.654-.814,2.944,2.944,0,0,0-3.161.685.784.784,0,0,1-.65.369c-.564-.022-1.075-.764-1.08-.771a.14.14,0,0,0-.223-.026.224.224,0,0,0-.021.272C15.8,28.646,16.384,29.493,17.092,29.521Z" transform="translate(-14.297 -22.123)" fill="#010002"/>
      <path id="Path_21990" data-name="Path 21990" d="M17.091,24.325h.036a1.082,1.082,0,0,0,.855-.491,2.67,2.67,0,0,1,2.823-.586c.161.07.432.226.446.476a.173.173,0,0,0,.169.18.185.185,0,0,0,.148-.206.967.967,0,0,0-.655-.814,2.942,2.942,0,0,0-3.161.685.78.78,0,0,1-.65.369c-.564-.021-1.075-.764-1.08-.771a.14.14,0,0,0-.223-.026.224.224,0,0,0-.021.272C15.8,23.45,16.383,24.3,17.091,24.325Z" transform="translate(-14.296 -18.301)" fill="#010002"/>
      <path id="Path_21991" data-name="Path 21991" d="M17.091,19.139h.036a1.082,1.082,0,0,0,.855-.491,2.668,2.668,0,0,1,2.823-.586c.161.07.432.226.446.476a.174.174,0,0,0,.169.18.186.186,0,0,0,.148-.206.966.966,0,0,0-.655-.814,2.941,2.941,0,0,0-3.161.685.8.8,0,0,1-.65.369c-.564-.022-1.075-.764-1.08-.772a.14.14,0,0,0-.223-.026.224.224,0,0,0-.021.272C15.8,18.264,16.383,19.112,17.091,19.139Z" transform="translate(-14.296 -14.487)" fill="#010002"/>
    </g>
  </g>
</svg>
