<svg xmlns="http://www.w3.org/2000/svg" width="9" height="9" viewBox="0 0 9 9">
  <path id="copyright-svgrepo-com" d="M4.5,13.359A2.628,2.628,0,0,1,4.5,8.1h0a2.624,2.624,0,0,1,1.863.775.391.391,0,1,1-.553.553A1.825,1.825,0,0,0,4.5,8.9h0a1.825,1.825,0,0,0-1.309.535,1.859,1.859,0,0,0,0,2.619,1.87,1.87,0,0,0,2.619,0,.391.391,0,1,1,.553.553A2.638,2.638,0,0,1,4.5,13.359Zm0,1.881A4.5,4.5,0,1,1,9,10.74,4.506,4.506,0,0,1,4.5,15.24Zm0-8.225A3.725,3.725,0,1,0,8.225,10.74,3.727,3.727,0,0,0,4.5,7.015Z" transform="translate(0 -6.24)" fill="#bbb"/>
</svg>
