<svg xmlns="http://www.w3.org/2000/svg" width="12.599" height="12.599" viewBox="0 0 12.599 12.599">
  <path id="call-svgrepo-com" d="M6.672,9.59c-3.3-3.3-3.143-5.8-1.633-6.93l.335-.249A.791.791,0,0,1,6.494,2.6l.843,1.212A.8.8,0,0,1,7.2,4.873l-.811.7a.635.635,0,0,0-.211.694A6.317,6.317,0,0,0,7.727,8.534,6.332,6.332,0,0,0,9.993,10.08a.635.635,0,0,0,.695-.211l.7-.81a.8.8,0,0,1,1.062-.133l1.214.843a.79.79,0,0,1,.189,1.118l-.251.338C12.471,12.734,9.973,12.891,6.672,9.59Z" transform="matrix(0.951, 0.309, -0.309, 0.951, -0.025, -3.385)" fill="#fff"/>
</svg>
