<svg xmlns="http://www.w3.org/2000/svg" width="21.139" height="20.189" viewBox="0 0 21.139 20.189">
  <g id="Group_2486" data-name="Group 2486" transform="translate(-303.85 -183.66)" opacity="0.496">
    <path id="Path_21762" data-name="Path 21762" d="M324.489,189.848a5.687,5.687,0,0,0-10.854-2.376h-6.8a2.487,2.487,0,0,0-2.485,2.484v6.8a2.487,2.487,0,0,0,2.485,2.484h.113a.083.083,0,0,1,.081.082v3.165a.86.86,0,0,0,1.468.608l3.831-3.831a.084.084,0,0,1,.058-.024h5.958a2.487,2.487,0,0,0,2.484-2.484v-1.6A5.7,5.7,0,0,0,324.489,189.848ZM308.1,194.126a.679.679,0,0,0,0,1.357h9.937a5.67,5.67,0,0,0,1.438.012v1.262a1.128,1.128,0,0,1-1.127,1.127h-5.958a1.426,1.426,0,0,0-1.017.422l-2.983,2.983v-1.965a1.441,1.441,0,0,0-1.439-1.439h-.113a1.129,1.129,0,0,1-1.128-1.127v-6.8a1.129,1.129,0,0,1,1.128-1.127h6.373a5.647,5.647,0,0,0,.036,2.222H308.1a.679.679,0,0,0,0,1.357h5.631a5.711,5.711,0,0,0,1.334,1.717Zm12.573-.338a4.254,4.254,0,0,1-1.038.341,4.309,4.309,0,0,1-.829.08,4.364,4.364,0,0,1-4.2-5.539,4.314,4.314,0,0,1,.445-1.038,4.36,4.36,0,1,1,5.622,6.156Z" fill="#fff" stroke="#fff" stroke-width="1"/>
    <path id="ic_close_24px" d="M9.844,5.488,9.356,5,7.422,6.934,5.488,5,5,5.488,6.934,7.422,5,9.356l.488.488L7.422,7.91,9.356,9.844l.488-.488L7.91,7.422Z" transform="translate(311.928 182.738)" fill="#fff" stroke="#fff" stroke-width="0.5"/>
  </g>
</svg>
