<svg xmlns="http://www.w3.org/2000/svg" width="20" height="20" viewBox="0 0 20 20">
  <path id="calendar-svgrepo-com" d="M0,16.26A3.558,3.558,0,0,0,1.1,18.9,3.73,3.73,0,0,0,3.76,20h12.5A3.756,3.756,0,0,0,20,16.26V3.76a3.607,3.607,0,0,0-.7-2.18A3.664,3.664,0,0,0,17.5.24V1.88a1.863,1.863,0,0,1-.54,1.34,1.722,1.722,0,0,1-1.34.54,1.858,1.858,0,0,1-1.32-.54,1.882,1.882,0,0,1-.54-1.34V0H6.26V1.88A1.828,1.828,0,0,1,5.7,3.22a1.737,1.737,0,0,1-1.32.54,2.031,2.031,0,0,1-1.34-.54A1.6,1.6,0,0,1,2.5,1.88V.24A3.831,3.831,0,0,0,.7,1.58,3.551,3.551,0,0,0,0,3.76v12.5Zm2.5,0v-10h15v10a1.229,1.229,0,0,1-1.24,1.24H3.76a1.265,1.265,0,0,1-.9-.36,1.1,1.1,0,0,1-.36-.88ZM3.76,1.88A.62.62,0,1,0,5,1.88V0H3.76ZM5,15H7.5V12.5H5Zm0-3.74H7.5V8.76H5ZM8.76,15h2.5V12.5H8.76V15Zm0-3.74h2.5V8.76H8.76v2.5ZM12.5,15H15V12.5H12.5Zm0-3.74H15V8.76H12.5ZM15,1.88a.622.622,0,0,0,1.06.44.676.676,0,0,0,.2-.44V0H15Z" transform="translate(0 0)" fill="#a4a4a4"/>
</svg>
