<svg xmlns="http://www.w3.org/2000/svg" width="20.139" height="19.189" viewBox="0 0 20.139 19.189">
  <g id="Group_89" data-name="Group 89" transform="translate(-304.35 -184.16)" opacity="0.496">
    <path id="Path_21762" data-name="Path 21762" d="M324.489,189.848a5.687,5.687,0,0,0-10.854-2.376h-6.8a2.487,2.487,0,0,0-2.485,2.484v6.8a2.487,2.487,0,0,0,2.485,2.484h.113a.083.083,0,0,1,.081.082v3.165a.86.86,0,0,0,1.468.608l3.831-3.831a.084.084,0,0,1,.058-.024h5.958a2.487,2.487,0,0,0,2.484-2.484v-1.6A5.7,5.7,0,0,0,324.489,189.848ZM308.1,194.126a.679.679,0,0,0,0,1.357h9.937a5.67,5.67,0,0,0,1.438.012v1.262a1.128,1.128,0,0,1-1.127,1.127h-5.958a1.426,1.426,0,0,0-1.017.422l-2.983,2.983v-1.965a1.441,1.441,0,0,0-1.439-1.439h-.113a1.129,1.129,0,0,1-1.128-1.127v-6.8a1.129,1.129,0,0,1,1.128-1.127h6.373a5.647,5.647,0,0,0,.036,2.222H308.1a.679.679,0,0,0,0,1.357h5.631a5.711,5.711,0,0,0,1.334,1.717Zm12.573-.338a4.254,4.254,0,0,1-1.038.341,4.309,4.309,0,0,1-.829.08,4.364,4.364,0,0,1-4.2-5.539,4.314,4.314,0,0,1,.445-1.038,4.36,4.36,0,1,1,5.622,6.156Z" fill="#fff"/>
    <path id="Path_21763" data-name="Path 21763" d="M450.513,216.516l1.246-1.215-1.722-.25-.107-.016-.378-.055-.217-.439-.027-.056-.742-1.5-.578,1.171-.192.39-.217.439-.485.071-.952.138-.77.112,1.246,1.215.351.342-.083.483-.294,1.715,1.54-.809.434-.228.433.228.4.208,1.038.545.107.056-.107-.623-.188-1.092-.082-.483.27-.263Zm-3.3-.615.932-.135.266-.539.151-.306.232.469.185.375.218.032.714.1-.52.508-.153.149.155.905v.021l-.829-.436-.834.438.16-.928Z" transform="translate(-129.763 -26.519)" fill="#fff"/>
  </g>
</svg>
