<svg xmlns="http://www.w3.org/2000/svg" width="16.76" height="20.563" viewBox="0 0 16.76 20.563">
  <g id="notification-svgrepo-com" transform="translate(-3.214 -0.94)">
    <path id="Path_21967" data-name="Path 21967" d="M11.5,2.91a5.577,5.577,0,0,0-5.61,5.535v2.666a4.363,4.363,0,0,1-.533,1.9L4.279,14.773a1.763,1.763,0,0,0,1.01,2.7,19.814,19.814,0,0,0,12.408,0,1.838,1.838,0,0,0,1.01-2.7l-1.075-1.762a4.483,4.483,0,0,1-.524-1.9V8.445A5.589,5.589,0,0,0,11.5,2.91Z" transform="translate(0)" fill="none" stroke="#fff" stroke-linecap="round" stroke-miterlimit="10" stroke-width="1.5"/>
    <path id="Path_21968" data-name="Path 21968" d="M13.87,3.2a6.054,6.054,0,0,0-.96-.2,6.754,6.754,0,0,0-2.74.2,1.988,1.988,0,0,1,3.7,0Z" transform="translate(-0.523)" fill="none" stroke="#fff" stroke-linecap="round" stroke-linejoin="round" stroke-miterlimit="10" stroke-width="1.5"/>
    <path id="Path_21969" data-name="Path 21969" d="M15.02,19.06a3,3,0,0,1-6,0" transform="translate(-0.524 -1.307)" fill="none" stroke="#fff" stroke-miterlimit="10" stroke-width="1.5"/>
    <circle id="Ellipse_161" data-name="Ellipse 161" cx="3" cy="3" r="3" transform="translate(13.974 0.94)" fill="#fb164b"/>
  </g>
</svg>
